PathFileType	4	(X/Y/Z)	D:\TRACE\v60_Jaco2_6-2-23\JustBodyDRS_Motion1_4-v60.trc
DataRate	CameraRate	NumFrames	NumMarkers	Units	OrigDataRate	OrigDataStartFrame	OrigNumFrames
100.00	100.00	      39	9	mm	100.00	6087	      6956
Frame#	Time	front left toe			Front right toe			aft left toe			aft right toe			Arm			FL body			FR body			AL Body			AR Body			
		X1	Y1	Z1	X2	Y2	Z2	X3	Y3	Z3	X4	Y4	Z4	X5	Y5	Z5	X6	Y6	Z6	X7	Y7	Z7	X8	Y8	Z8	X9	Y9	Z9	

6087	60.860	-88.33841	4.84779	-295.51956	313.66324	121.22092	-305.99979	-58.82669	141.95491	321.49170	303.56693	28.48705	319.85443	16.98228	1198.16675	-447.60391	38.47365	565.83380	-434.74673	198.81880	564.34473	-437.34610	55.44633	577.14856	511.83881	212.89899	569.75256	510.52298	
6088	60.870	-88.98733	4.91450	-295.61896	313.57480	129.95953	-306.38156	-60.14606	151.89473	321.03571	302.49130	28.39396	319.90613	15.67416	1197.51172	-447.31018	38.69384	564.98975	-434.15210	198.56480	563.89752	-437.61011	55.37198	577.41736	512.34857	212.71523	569.73273	510.16220	
6089	60.880	-90.23384	5.22724	-295.43979	312.68011	135.01898	-306.50549	-59.59293	157.50404	321.56171	301.91913	28.35826	319.94348	15.49038	1196.90857	-448.37576	36.95844	564.34906	-433.90948	197.44991	563.01270	-437.23328	55.21037	577.44299	512.31152	213.08882	569.69995	510.74713	
6090	60.890	-91.09663	4.83089	-295.48361	312.03445	137.75058	-306.02127	-59.40170	160.03505	322.48972	301.27686	28.32233	319.87433	15.70224	1196.06396	-448.11221	36.40250	564.09308	-433.72223	196.41449	562.36823	-436.69067	55.42284	577.60168	513.06128	213.07722	569.67346	510.85437	
6091	60.900	-91.78579	4.74351	-295.34030	311.26181	137.57687	-305.42285	-60.11833	160.63536	323.35193	300.13068	27.94345	319.66266	15.88539	1195.24500	-449.32840	35.79081	563.37714	-432.81097	195.79767	561.99652	-436.80685	55.89479	577.71948	513.62067	213.03258	569.78540	510.70795	
6092	60.910	-93.62008	5.39345	-294.92697	309.82910	134.22542	-304.37393	-61.36346	158.45151	324.49979	299.27829	27.85994	319.72189	15.71315	1194.58606	-449.60938	35.23019	563.08844	-432.65051	194.79663	561.58868	-436.60632	57.60357	578.79968	515.73657	213.42351	570.05328	511.55591	
6093	60.920	-94.26554	5.42202	-294.87296	308.26831	129.01604	-303.50562	-61.70599	154.75418	325.52103	298.62637	27.83276	319.81244	15.38498	1194.61206	-449.70688	33.49511	563.18097	-432.24908	193.67322	561.30774	-436.03244	56.61476	578.52802	514.67749	213.40746	570.09918	511.65237	
6094	60.930	-95.27848	5.21534	-294.66098	306.49408	123.02606	-303.54294	-61.19433	149.28693	327.20132	297.30981	27.54222	319.72623	14.33082	1194.61279	-449.13370	32.86694	563.21759	-431.99197	193.50505	561.00238	-436.31250	56.42684	578.43213	514.02545	213.36057	570.18420	511.89215	
6095	60.940	-95.99307	5.17380	-294.59869	304.38870	115.95563	-303.35983	-61.90077	144.36322	328.30121	296.68454	27.67380	319.77661	13.68425	1194.62256	-448.66174	33.41393	562.68323	-431.28073	192.35776	560.30054	-435.89499	56.50966	578.57855	514.20905	213.28426	570.21570	512.13171	
6096	60.950	-96.99800	5.27275	-294.68970	302.58667	108.48554	-303.92438	-63.15175	138.74738	328.88864	295.86212	27.51236	319.71051	13.48649	1194.58948	-448.14520	32.75481	562.20288	-431.02582	191.68486	559.96570	-435.76038	56.39108	578.60449	514.43402	213.34270	570.22241	512.25732	
6097	60.960	-98.01942	5.38440	-294.43210	301.59402	101.26221	-305.02872	-63.10671	131.37260	329.80594	294.42776	27.37131	319.75751	13.83531	1194.54248	-447.87170	31.58411	562.43292	-430.96475	190.93109	560.05005	-435.55710	56.62023	578.63556	514.74280	213.38524	570.18658	512.27374	
6098	60.970	-99.17083	5.66082	-294.27625	300.46848	93.10289	-306.02982	-62.96358	122.70787	330.19550	293.99298	27.20565	319.79147	14.19397	1194.55957	-447.68362	30.71995	562.80511	-430.79068	190.47354	560.25610	-435.88760	56.86377	578.72388	515.07715	213.47481	569.92896	511.86896	
6099	60.980	-99.60260	5.58383	-294.28152	299.81552	84.84969	-306.57623	-64.24483	114.22443	329.93347	293.22766	27.03992	319.80161	14.48388	1194.63110	-447.74091	29.18120	563.03271	-430.69702	189.86494	560.06683	-435.69699	57.05827	578.80969	515.47485	213.59137	569.83698	511.89362	
6100	60.990	-100.91317	5.84885	-294.09525	299.10519	75.99304	-307.37152	-63.31770	102.95406	330.33728	292.33978	26.91207	319.76340	14.66143	1194.56067	-447.63992	28.67188	563.10632	-430.57141	189.23880	559.89355	-435.50858	57.12243	578.81909	515.69897	213.64262	569.79883	511.98383	
6101	61.000	-101.54382	5.78129	-294.02109	298.10333	66.83339	-307.42981	-63.75363	94.16125	330.09363	291.49261	26.92505	320.03403	14.36936	1194.67517	-447.12097	27.82783	563.12848	-430.34451	187.96475	559.64746	-435.40247	57.15594	578.84259	515.79407	213.97229	569.57983	512.48462	
6102	61.010	-102.37350	5.51104	-294.17419	296.95126	57.48175	-307.46747	-63.61957	85.57936	330.06302	290.51843	26.72656	320.10522	14.15787	1194.84375	-446.97107	27.25473	563.05212	-430.30368	187.26096	559.36749	-435.38678	57.16704	578.87012	515.83801	214.02080	569.47485	512.46704	
6103	61.020	-103.79918	6.02484	-294.16327	295.98523	48.71028	-307.30237	-63.63897	76.83269	330.27744	289.66962	26.55555	320.12149	13.93925	1195.02368	-446.51993	26.62304	563.05371	-430.30161	187.31833	559.58997	-435.80453	57.20139	578.90845	515.88452	214.15182	569.39435	512.50916	
6104	61.030	-104.78002	6.22728	-294.06818	295.43665	40.01508	-306.78943	-63.89031	68.16582	330.53632	288.62833	26.27234	320.06540	13.56502	1194.95837	-446.39609	27.25066	562.56720	-429.74710	187.01141	559.45636	-435.54178	57.33658	578.98138	515.95404	214.41550	569.22272	512.58667	
6105	61.040	-105.22173	6.08581	-294.01770	294.78491	31.91553	-306.49924	-64.40269	60.32159	330.98303	287.69473	26.13795	320.21774	13.24423	1194.74695	-446.50290	26.47246	562.69122	-429.72324	186.36345	559.31250	-435.69958	57.56149	578.79169	515.97290	214.29015	569.12543	512.17645	
6106	61.050	-106.36354	6.23455	-293.74237	295.66547	25.22314	-305.97238	-64.77567	53.26867	331.55029	286.85797	25.82000	320.23248	12.84977	1194.59485	-446.70508	25.81419	562.56415	-429.60968	185.68967	559.27008	-435.77798	57.76162	578.55981	515.92560	214.47668	568.96490	512.11121	
6107	61.060	-106.84039	6.11322	-293.77164	297.16751	19.15958	-305.78574	-64.65054	46.51946	331.49707	286.02255	25.62553	320.28714	12.44165	1194.36682	-447.04965	25.27422	562.39227	-429.56631	184.95563	559.06976	-435.97601	57.87936	578.28552	515.83282	214.60818	569.05548	512.47308	
6108	61.070	-107.76502	6.39788	-293.80203	297.19901	13.12898	-305.78113	-64.76683	40.31282	331.36472	285.38174	25.70375	320.17856	12.15166	1194.46362	-447.28418	24.89412	562.39166	-429.68234	184.27563	558.93396	-435.72537	57.90480	578.23840	515.74036	214.66644	568.99738	512.20459	
6109	61.080	-109.55209	6.98707	-293.73483	296.45041	6.81868	-306.07614	-65.22009	34.09237	331.12796	284.06046	25.60940	320.18408	11.59542	1194.56470	-447.29477	23.71573	562.62445	-430.15891	183.62784	558.97778	-435.98181	58.06213	578.38354	515.63977	214.78780	569.00696	511.91940	
6110	61.090	-110.01874	6.87649	-293.64883	296.19696	5.82971	-307.83081	-65.81716	30.06356	329.23776	283.30713	25.38603	320.28867	11.18302	1194.74243	-447.15677	22.74903	562.85596	-430.59152	182.93040	559.22278	-436.28079	58.18500	578.39697	515.48126	214.84050	568.73981	511.01050	
6111	61.100	-110.62587	7.01327	-293.52066	295.67166	4.04018	-308.31467	-67.40244	27.63375	329.58121	282.29214	25.19621	320.18237	10.79939	1194.95923	-447.22577	22.93525	563.23730	-430.24451	182.56105	559.48322	-436.34943	58.32704	578.82892	515.34711	215.13046	569.05481	510.80673	
6112	61.110	-111.75596	7.52228	-293.36746	294.85889	4.42250	-307.89862	-68.93292	28.23728	329.67484	280.89459	25.14123	319.91583	9.90415	1195.52515	-447.66046	21.99928	563.83380	-430.28009	181.37756	560.11530	-437.17123	58.38074	580.13477	515.08405	215.32979	570.48468	511.40070	
6113	61.120	-111.98333	7.75480	-293.39911	293.47968	4.79223	-307.70676	-69.34103	28.50148	329.23166	280.41806	25.97598	319.90610	8.63591	1196.54346	-447.88470	21.15338	564.35193	-430.50406	181.15669	560.61871	-437.62234	58.84685	582.42389	515.13104	215.64160	572.14392	511.01770	
6114	61.130	-111.88460	11.43393	-291.83588	292.37360	4.21075	-307.70792	-69.70680	27.73158	330.44812	278.47046	28.95610	321.46793	8.43072	1197.65466	-448.38885	19.62215	565.21210	-430.43118	179.87415	561.14337	-437.44440	59.36082	583.74634	515.25116	217.12335	573.68066	512.14771	
6115	61.140	-109.08663	14.89928	-287.97192	291.28201	4.64415	-307.57791	-71.38155	27.76931	329.87521	275.69727	32.73331	325.71863	7.37483	1198.27637	-449.92081	18.34034	566.33728	-430.49942	179.03630	562.06689	-437.60336	59.53532	584.78674	515.35382	217.07236	574.11475	511.55676	
6116	61.150	-105.47703	22.12124	-284.84280	290.46313	4.52379	-307.87610	-71.91318	27.67752	330.10974	272.20850	40.99131	327.75259	6.92660	1198.65820	-450.36108	17.76687	566.60693	-430.52698	177.72066	562.32233	-437.44354	59.93078	585.04205	515.17316	216.10486	574.61249	509.27402	
6117	61.160	-103.63585	31.58311	-283.90683	289.36676	4.28188	-308.16156	-72.61319	27.74529	330.17352	270.69873	51.35006	328.66037	6.87342	1198.61841	-450.59631	17.47488	566.56903	-430.55173	177.00624	562.30499	-437.67880	60.02124	585.44971	514.67432	216.31198	575.03882	509.17480	
6118	61.170	-103.21219	42.95016	-284.24069	288.68451	4.11899	-307.58582	-73.60530	27.71416	330.11694	270.85233	63.53649	327.80508	6.79580	1198.33521	-450.29117	17.65079	566.08301	-430.24136	176.78802	562.11475	-437.78006	59.53508	585.88232	514.53064	216.17516	575.42126	509.12247	
6119	61.180	-103.66492	54.67501	-285.38654	287.96838	4.30039	-307.32013	-74.46672	27.15670	330.31235	273.69888	76.39829	325.79446	6.35389	1198.30090	-450.32465	16.76507	566.15631	-430.67972	176.59229	562.03796	-437.78073	58.89503	585.69806	514.53302	215.90192	575.26599	509.12433	
6120	61.190	-104.44357	67.56531	-287.10541	287.15549	4.40457	-307.41965	-75.69695	27.01768	330.28036	278.43399	89.20224	324.11267	5.35919	1198.19812	-450.40195	16.39955	566.10004	-430.92725	176.48920	562.02081	-437.76358	58.27295	585.06030	514.68201	214.95409	574.83167	509.39133	
6121	61.200	-104.77033	80.00587	-288.68262	286.25296	4.28885	-307.36697	-77.02694	26.68944	330.58002	282.32101	101.54000	322.22726	5.07191	1198.06445	-449.37061	16.12335	566.03448	-431.11993	176.45204	561.97540	-437.74524	57.24294	584.29199	514.47760	214.03986	573.93536	509.33218	
6122	61.210	-104.89236	92.46049	-290.06152	285.39252	4.35602	-307.04910	-77.85233	26.30568	330.36267	284.86621	113.14988	320.81342	4.83371	1197.94116	-449.88718	15.91541	565.67761	-431.23557	176.37245	561.86975	-437.70221	56.31459	583.60168	514.17535	213.43895	573.41333	509.38937	
6123	61.220	-103.55572	104.04973	-290.99908	284.74060	4.42101	-306.92081	-78.96409	26.30610	330.27267	286.44818	124.65806	319.78036	4.92246	1197.66125	-449.55289	15.55791	565.54370	-431.30258	176.82527	561.79401	-437.90839	55.88068	583.15637	514.73083	212.65756	573.00012	509.47324	
6124	61.230	-101.80260	115.24788	-291.78061	284.08157	4.44803	-307.01169	-79.90109	26.26085	330.33371	287.32230	135.39326	319.25586	4.98738	1197.70996	-449.06717	15.20013	565.56879	-431.25595	176.32614	561.66913	-437.85168	55.45562	583.00861	514.78522	212.12120	572.88885	509.67313	
6125	61.240	-100.62699	125.18192	-292.63058	283.08401	4.50449	-306.90707	-80.75072	25.98038	330.25699	288.52600	144.78242	318.66306	5.02536	1197.85022	-448.74942	14.88720	565.53162	-431.06937	175.77942	561.49377	-437.66037	56.09312	583.65826	516.21381	211.57309	572.71454	509.83771	
